<?xml version="1.0" encoding="UTF-8" standalone="no"?>
<svg
   xmlns:dc="http://purl.org/dc/elements/1.1/"
   xmlns:cc="http://creativecommons.org/ns#"
   xmlns:rdf="http://www.w3.org/1999/02/22-rdf-syntax-ns#"
   xmlns:svg="http://www.w3.org/2000/svg"
   xmlns="http://www.w3.org/2000/svg"
   xmlns:sodipodi="http://sodipodi.sourceforge.net/DTD/sodipodi-0.dtd"
   xmlns:inkscape="http://www.inkscape.org/namespaces/inkscape"
   height="1024"
   id="Слой_1"
   version="1.1"
   viewBox="0 0 1024 1024"
   width="1024"
   xml:space="preserve"
   inkscape:version="0.48.2 r9819"
   sodipodi:docname="ThreeMen.svg"
   inkscape:export-filename="/Users/jitan/Projects/apps/InTouchAlways/InTouchAlways/AppPreview Screenshots/ThreeMen_1024x1024.png"
   inkscape:export-xdpi="90"
   inkscape:export-ydpi="90"><metadata
     id="metadata3046"><rdf:RDF><cc:Work
         rdf:about=""><dc:format>image/svg+xml</dc:format><dc:type
           rdf:resource="http://purl.org/dc/dcmitype/StillImage" /><dc:title></dc:title></cc:Work></rdf:RDF></metadata><defs
     id="defs3044" /><sodipodi:namedview
     pagecolor="#ffffff"
     bordercolor="#666666"
     borderopacity="1"
     objecttolerance="10"
     gridtolerance="10"
     guidetolerance="10"
     inkscape:pageopacity="0"
     inkscape:pageshadow="2"
     inkscape:window-width="1117"
     inkscape:window-height="714"
     id="namedview3042"
     showgrid="false"
     inkscape:zoom="0.2799099"
     inkscape:cx="-29.708702"
     inkscape:cy="628.07346"
     inkscape:window-x="0"
     inkscape:window-y="0"
     inkscape:window-maximized="0"
     inkscape:current-layer="Слой_1"
     showguides="true"><inkscape:grid
       type="xygrid"
       id="grid3052"
       empspacing="5"
       visible="true"
       enabled="true"
       snapvisiblegridlinesonly="true" /></sodipodi:namedview><rect
     style="fill:#d5f6ff"
     id="rect3048"
     width="1024"
     height="1024"
     x="0"
     y="0" /><path
     d="m 904.57574,756.97042 c 66.48003,26.1852 106.14196,59.14241 106.14196,94.97782 0,85.14822 -223.85995,154.18886 -500.01596,154.18886 -276.12402,0 -499.984005,-69.04063 -499.984005,-154.18886 0,-35.83541 39.627992,-68.79262 106.105975,-94.97782 -15.93598,11.09261 -24.64199,23.02402 -24.64199,35.45008 0,57.84446 187.358,104.66476 418.52002,104.66476 231.15802,0 418.55197,-46.8203 418.55197,-104.66476 0,-12.42606 -8.70599,-24.35747 -24.67797,-35.45008 l 0,0 z M 265.21972,56.364489 c 50.19199,0 90.906,40.67812 90.906,90.870161 0,50.19203 -40.71399,90.90593 -90.906,90.90593 -50.192,0 -90.87001,-40.71593 -90.87001,-90.90593 0,-50.190181 40.67801,-90.870177 90.87001,-90.870177 l 0,0 z m 489.62603,0 c -50.224,0 -90.906,40.67812 -90.906,90.870161 0,50.19203 40.682,90.90593 90.906,90.90593 50.192,0 90.87001,-40.7139 90.87001,-90.90593 0,-50.192041 -40.67801,-90.870177 -90.87001,-90.870177 l 0,0 z m -89.816,522.726311 v 239.54814 h 64.054 l 25.586,-167.9148 25.622,167.9148 h 69.744 V 553.32893 c 27.65596,-14.42609 46.67991,-43.41611 46.67991,-76.62222 V 340.98264 c 0,-47.45594 -38.81998,-86.30797 -86.27391,-86.30797 h -106.21 c -6.84401,0 -13.514,0.80742 -19.936,2.35 14.21399,21.72593 22.464,47.62797 22.464,75.43 v 147.72817 c 0,37.83405 -15.512,73.2861 -41.73,98.90796 l 0,0 z M 512.21174,22.740597 c 54.648,0 98.906,44.257971 98.906,98.905923 0,54.61205 -44.258,98.91017 -98.906,98.91017 -54.61603,0 -98.91003,-44.2981 -98.91003,-98.91017 0,-54.647952 44.294,-98.905923 98.91003,-98.905923 l 0,0 z m 97.712,541.010183 c 30.36001,-15.61999 51.244,-47.27591 51.244,-83.56999 V 332.45264 c 0,-51.63205 -42.26,-93.89205 -93.92399,-93.89205 H 451.69971 c -51.632,0 -93.924,42.26 -93.924,93.89205 v 147.72815 c 0,36.15406 20.706,67.66998 50.81999,83.35813 v 288.72233 h 75.88601 l 27.86803,-182.72045 27.902,182.72045 h 69.672 V 563.75078 l 0,0 z M 355.03772,579.0908 c -26.22002,-25.62186 -41.732,-61.07391 -41.732,-98.91 V 332.45264 c 0,-27.8 8.248,-53.70387 22.46398,-75.43001 -6.42198,-1.54259 -13.09398,-2.34999 -19.93598,-2.34999 H 209.62373 c -47.45401,0 -86.27402,38.85203 -86.27402,86.30816 v 135.72407 c 0,33.20593 19.02402,62.19593 46.68001,76.62203 v 265.31204 h 69.708 l 25.622,-167.91479 25.622,167.91479 H 355.0357 V 579.0908 z"
     style="fill:#3c3c3b;fill-rule:evenodd"
     id="path3040"
     inkscape:connector-curvature="0" /></svg>