<?xml version="1.0" encoding="UTF-8" standalone="no"?>
<svg
   xmlns:dc="http://purl.org/dc/elements/1.1/"
   xmlns:cc="http://creativecommons.org/ns#"
   xmlns:rdf="http://www.w3.org/1999/02/22-rdf-syntax-ns#"
   xmlns:svg="http://www.w3.org/2000/svg"
   xmlns="http://www.w3.org/2000/svg"
   xmlns:sodipodi="http://sodipodi.sourceforge.net/DTD/sodipodi-0.dtd"
   xmlns:inkscape="http://www.inkscape.org/namespaces/inkscape"
   height="1136"
   id="Слой_1"
   version="1.1"
   viewBox="0 0 640 1136"
   width="640"
   xml:space="preserve"
   inkscape:version="0.48.2 r9819"
   sodipodi:docname="1401951533_1.svg"
   inkscape:export-filename="/Users/jitan/Downloads/ThreeMen_640x1136.png"
   inkscape:export-xdpi="90"
   inkscape:export-ydpi="90"><metadata
     id="metadata3046"><rdf:RDF><cc:Work
         rdf:about=""><dc:format>image/svg+xml</dc:format><dc:type
           rdf:resource="http://purl.org/dc/dcmitype/StillImage" /><dc:title></dc:title></cc:Work></rdf:RDF></metadata><defs
     id="defs3044" /><sodipodi:namedview
     pagecolor="#ffffff"
     bordercolor="#666666"
     borderopacity="1"
     objecttolerance="10"
     gridtolerance="10"
     guidetolerance="10"
     inkscape:pageopacity="0"
     inkscape:pageshadow="2"
     inkscape:window-width="1117"
     inkscape:window-height="714"
     id="namedview3042"
     showgrid="false"
     inkscape:zoom="0.2799099"
     inkscape:cx="-29.708702"
     inkscape:cy="628.07346"
     inkscape:window-x="0"
     inkscape:window-y="0"
     inkscape:window-maximized="0"
     inkscape:current-layer="Слой_1"
     showguides="true"><inkscape:grid
       type="xygrid"
       id="grid3052"
       empspacing="5"
       visible="true"
       enabled="true"
       snapvisiblegridlinesonly="true" /></sodipodi:namedview><rect
     style="fill:#d5f6ff"
     id="rect3048"
     width="640"
     height="1136"
     x="0"
     y="1.1368684e-13" /><path
     d="M 569.77687,721.80867 C 611.93718,738.4148 637.09,759.3156 637.09,782.0417 c 0,53.9993 -141.96752,97.7835 -317.10014,97.7835 -175.11233,0 -317.0798603,-43.78419 -317.0798603,-97.7835 0,-22.7261 25.1312853,-43.6269 67.2902973,-60.23303 -10.106288,7.03471 -15.627461,14.60137 -15.627461,22.48173 0,36.6838 118.818694,66.3763 265.417024,66.3763 146.59579,0 265.43729,-29.6925 265.43729,-66.3763 0,-7.88036 -5.52117,-15.44702 -15.65028,-22.48173 l 0,0 z M 164.31007,277.4984 c 31.83076,0 57.65077,25.79725 57.65077,57.62804 0,31.83078 -25.82,57.65072 -57.65077,57.65072 -31.83076,0 -57.62794,-25.82123 -57.62794,-57.65072 0,-31.82961 25.79718,-57.62805 57.62794,-57.62805 l 0,0 z m 310.51104,0 c -31.85106,0 -57.65077,25.79725 -57.65077,57.62804 0,31.83078 25.79971,57.65072 57.65077,57.65072 31.83076,0 57.62794,-25.81994 57.62794,-57.65072 0,-31.83079 -25.79718,-57.62805 -57.62794,-57.62805 l 0,0 z M 417.8616,609.00097 v 151.91664 h 40.62176 l 16.22613,-106.48821 16.24896,106.48821 h 44.23025 v -168.2543 c 17.53886,-9.14874 29.60347,-27.53363 29.60347,-48.59228 v -86.07349 c 0,-30.09561 -24.61886,-54.73479 -54.71319,-54.73479 h -67.35626 c -4.34033,0 -8.57031,0.51205 -12.64301,1.49032 9.01423,13.77815 14.24622,30.20471 14.24622,47.8362 v 93.68625 c 0,23.9936 -9.8374,46.47658 -26.46433,62.72545 l 0,0 z M 320.94747,256.1748 c 34.65667,0 62.72421,28.06752 62.72421,62.72416 0,34.63387 -28.06754,62.72685 -62.72421,62.72685 -34.63639,0 -62.72676,-28.09297 -62.72676,-62.72685 0,-34.65664 28.09037,-62.72416 62.72676,-62.72416 l 0,0 z m 61.967,343.09784 c 19.25371,-9.90589 32.49792,-29.98144 32.49792,-52.99842 v -93.68624 c 0,-32.74401 -26.80045,-59.54446 -59.56472,-59.54446 h -73.27572 c -32.74398,0 -59.56472,26.80045 -59.56472,59.54446 v 93.68624 c 0,22.92818 13.13133,42.91495 32.22902,52.86406 v 183.10193 h 48.12539 l 17.67335,-115.87766 17.69489,115.87766 h 44.18459 V 599.27264 l 0,0 z m -161.64362,9.72833 c -16.62821,-16.24887 -26.4656,-38.73185 -26.4656,-62.72674 v -93.68625 c 0,-17.6302 5.23072,-34.05792 14.24621,-47.8362 -4.07269,-0.97828 -8.30394,-1.49032 -12.643,-1.49032 h -67.35625 c -30.094388,0 -54.713257,24.63918 -54.713257,54.73491 v 86.07349 c 0,21.05854 12.064649,39.44342 29.603527,48.59216 v 168.25559 h 44.20742 l 16.24896,-106.4882 16.24896,106.4882 h 40.62175 V 609.00097 z"
     style="fill:#3c3c3b;fill-rule:evenodd"
     id="path3040"
     inkscape:connector-curvature="0" /></svg>